<?xml version="1.0" standalone="no"?>
<!DOCTYPE svg PUBLIC "-//W3C//DTD SVG 20010904//EN"
 "http://www.w3.org/TR/2001/REC-SVG-20010904/DTD/svg10.dtd">
<svg version="1.0" xmlns="http://www.w3.org/2000/svg"
 width="1024.000000pt" height="1024.000000pt" viewBox="0 0 1024.000000 1024.000000"
 preserveAspectRatio="xMidYMid meet">

<g transform="translate(0.000000,1024.000000) scale(0.100000,-0.100000)"
fill="#000000" stroke="none">
<path d="M5064 8261 c-64 -40 -66 -132 -3 -185 36 -30 36 -43 3 -148 -52 -163
-121 -268 -178 -268 -37 0 -71 34 -141 140 l-66 98 26 38 c37 55 22 120 -36
150 -41 21 -82 10 -115 -29 -22 -26 -25 -38 -21 -71 6 -45 44 -86 79 -86 20 0
21 -3 15 -94 -8 -115 -32 -192 -70 -220 l-28 -21 -43 23 c-23 13 -83 59 -133
103 -90 80 -91 81 -77 107 37 72 -11 152 -91 152 -37 0 -62 -16 -81 -52 -32
-62 8 -135 81 -147 35 -6 38 -9 94 -132 31 -69 70 -156 86 -195 16 -38 29 -70
30 -71 0 -1 42 11 93 27 203 63 395 90 652 90 240 0 393 -22 614 -86 82 -24
90 -25 101 -10 7 9 48 97 91 196 54 122 84 179 94 179 63 -4 115 32 126 85 17
95 -99 152 -166 81 -25 -26 -37 -94 -22 -121 8 -15 -3 -30 -70 -93 -98 -93
-143 -122 -183 -119 -55 5 -82 75 -101 256 -5 57 -4 62 14 62 27 0 68 35 79
67 15 43 -2 91 -40 113 -40 25 -64 25 -105 0 -58 -36 -65 -109 -15 -156 l25
-23 -56 -84 c-66 -100 -125 -157 -162 -157 -56 0 -132 120 -188 298 -14 46
-26 87 -26 91 0 4 11 13 23 18 34 16 61 77 53 121 -12 75 -98 114 -162 73z"/>
<path d="M1660 7458 c-18 -94 -24 -312 -11 -395 42 -273 221 -498 551 -693 65
-39 134 -77 155 -86 80 -33 23 -21 -100 21 -260 90 -484 219 -643 370 l-88 84
3 -62 c14 -225 97 -404 261 -559 123 -116 317 -219 512 -273 178 -49 171 -50
-77 -15 -224 33 -345 70 -543 170 -44 22 -81 40 -84 40 -7 0 35 -104 70 -170
129 -247 386 -405 719 -444 l110 -13 -90 -8 c-176 -15 -477 10 -607 51 -19 6
-19 4 4 -36 59 -106 211 -240 341 -301 98 -45 165 -59 330 -66 81 -3 146 -7
145 -9 -14 -13 -337 -67 -432 -73 l-119 -6 54 -63 c97 -115 225 -182 387 -203
76 -10 106 -10 202 5 61 10 114 16 115 14 2 -2 -45 -30 -105 -61 -82 -44 -134
-63 -209 -80 l-100 -23 57 -46 c105 -84 201 -118 337 -118 116 0 221 31 320
95 24 16 20 9 -22 -40 -28 -33 -64 -72 -80 -86 -31 -29 -138 -102 -198 -135
l-39 -21 85 -33 c149 -57 278 -51 418 20 33 16 76 44 96 61 20 18 37 30 38 28
18 -25 38 -61 35 -63 -2 -2 -30 -22 -63 -46 -33 -24 -62 -45 -64 -46 -2 -2 14
-29 35 -61 l39 -58 5 -425 5 -424 270 -195 c791 -570 1421 -1025 1432 -1033 9
-7 107 59 325 219 172 126 403 295 513 374 110 80 315 228 455 330 140 102
294 213 343 248 l87 63 0 418 0 417 41 64 c23 35 37 65 33 66 -5 2 -35 21 -66
43 l-57 41 20 34 20 34 72 -49 c40 -27 107 -60 152 -75 110 -38 215 -33 329
15 57 24 76 36 65 42 -7 5 -54 32 -104 61 -63 36 -115 77 -173 136 -45 46 -81
85 -79 87 2 2 37 -14 78 -36 97 -50 173 -70 274 -70 138 0 245 41 348 131 l40
35 -84 17 c-62 12 -116 32 -206 77 -68 34 -123 66 -123 71 0 5 11 4 24 -1 14
-5 71 -14 128 -21 89 -10 117 -10 203 5 144 24 229 68 327 168 43 44 78 84 78
89 0 5 -35 9 -77 9 -101 0 -191 13 -333 47 l-115 28 135 7 c151 8 257 31 347
76 73 37 167 108 219 164 40 44 129 168 120 168 -3 0 -31 -7 -63 -15 -153 -40
-434 -57 -603 -36 l-55 7 80 7 c392 39 677 235 797 550 15 37 25 67 24 67 -2
0 -64 -29 -139 -65 -192 -92 -382 -142 -607 -160 l-75 -6 85 26 c268 82 420
165 565 310 160 159 216 288 238 548 l5 48 -92 -88 c-110 -106 -209 -173 -381
-259 -110 -54 -385 -161 -385 -149 0 2 39 24 88 50 208 111 403 267 498 401
133 186 180 416 139 674 -23 144 -23 143 -61 60 -103 -222 -324 -455 -637
-674 -85 -59 -278 -176 -291 -176 -4 0 -6 17 -6 39 0 40 -13 117 -31 184 l-10
40 -36 -53 c-76 -114 -256 -281 -404 -376 -66 -42 -270 -154 -281 -154 -4 0
-21 24 -39 53 -96 157 -318 399 -476 522 -446 345 -1033 479 -1596 364 -520
-105 -989 -429 -1272 -876 -22 -35 -44 -63 -49 -63 -16 0 -212 114 -311 181
-154 104 -308 250 -384 363 l-26 39 -12 -44 c-7 -24 -18 -83 -24 -131 l-12
-88 -56 31 c-102 58 -280 181 -409 284 -222 178 -380 363 -463 538 -17 37 -32
67 -34 67 -2 0 -8 -28 -15 -62z m98 -260 c56 -69 211 -224 308 -307 154 -134
377 -286 534 -366 44 -22 50 -30 64 -77 21 -71 76 -162 139 -227 62 -63 63
-63 -138 16 -323 128 -546 263 -715 432 -88 88 -113 120 -148 191 -23 47 -49
117 -56 155 -18 88 -30 215 -21 215 3 0 18 -15 33 -32z m6752 -143 c-31 -169
-96 -281 -240 -418 -159 -152 -356 -266 -675 -395 -216 -86 -210 -86 -140 -11
61 66 118 166 130 229 6 32 15 39 107 90 156 84 321 196 453 307 116 97 298
278 347 343 l23 32 3 -59 c2 -32 -2 -85 -8 -118z m-3199 104 c539 -54 1011
-325 1337 -767 395 -535 463 -1284 174 -1913 -331 -719 -1114 -1172 -1880
-1088 -734 80 -1355 586 -1587 1294 -56 168 -83 310 -94 493 -30 477 102 916
383 1277 77 97 241 257 345 334 380 281 864 417 1322 370z m-2411 -664 c99
-82 233 -169 361 -235 57 -29 105 -54 107 -55 1 -1 -14 -38 -35 -83 -43 -96
-35 -95 -179 -27 -110 51 -232 132 -297 197 -64 64 -114 170 -126 267 -5 40
-7 79 -5 86 3 8 23 -6 52 -37 26 -28 81 -79 122 -113z m4615 29 c-10 -69 -67
-175 -126 -233 -73 -74 -224 -171 -339 -219 l-95 -39 -40 85 -40 85 115 59
c164 84 322 193 431 296 l94 90 3 -42 c2 -22 1 -60 -3 -82z m-5730 -85 c227
-142 433 -225 725 -294 146 -34 140 -32 140 -49 0 -9 10 -41 21 -73 24 -64 93
-144 149 -173 32 -18 33 -19 10 -19 -74 -1 -363 66 -539 125 -111 37 -272 113
-349 165 -69 48 -194 177 -226 234 -25 45 -76 161 -76 173 0 2 12 -4 28 -14
15 -10 68 -44 117 -75z m6825 87 c0 -16 -64 -155 -89 -194 -39 -62 -150 -169
-221 -214 -187 -120 -467 -216 -803 -276 -59 -11 -107 -16 -107 -11 0 5 5 9
11 9 21 0 101 63 130 103 16 22 39 70 50 106 l19 66 188 46 c189 47 329 94
457 155 88 42 269 148 315 185 32 26 50 35 50 25z m-5787 -450 c31 -9 110 -28
175 -41 64 -13 144 -36 177 -49 33 -14 66 -26 73 -26 17 0 15 -25 -11 -107
l-22 -71 -119 39 c-127 42 -233 94 -279 137 -44 41 -95 151 -66 140 8 -3 40
-13 72 -22z m4666 -27 c-20 -65 -73 -113 -180 -163 -87 -41 -239 -96 -265 -96
-10 0 -62 157 -53 163 23 16 199 71 294 91 66 15 140 33 165 40 25 7 46 12 48
11 2 -2 -2 -22 -9 -46z m-5454 -245 c136 -33 299 -53 485 -61 l155 -6 24 -53
c31 -70 81 -121 155 -155 l61 -28 -195 -1 c-108 0 -234 5 -280 10 -206 26
-391 94 -500 184 -51 43 -170 173 -170 187 0 3 37 -7 83 -23 45 -16 127 -40
182 -54z m6434 64 c-6 -13 -55 -66 -108 -118 -118 -118 -191 -156 -389 -207
-131 -34 -146 -35 -357 -40 -286 -7 -287 -7 -203 35 76 37 121 84 146 155 l17
47 115 0 c224 0 511 48 695 115 49 19 91 34 93 34 1 1 -3 -9 -9 -21z m-5351
-154 c45 -3 82 -8 82 -12 0 -7 -20 -131 -25 -158 l-5 -21 -105 23 c-110 24
-186 53 -218 82 -11 9 -33 36 -49 60 l-29 42 133 -5 c73 -3 170 -8 216 -11z
m4348 -11 c-22 -42 -76 -90 -126 -112 -50 -22 -247 -68 -255 -60 -8 8 -28 169
-22 176 5 4 207 16 370 21 l48 2 -15 -27z m-4306 -343 c0 -92 8 -87 -111 -66
-83 15 -142 41 -177 79 l-23 24 73 12 c101 18 178 28 211 30 l27 1 0 -80z
m4148 53 l103 -16 -32 -33 c-36 -37 -90 -58 -189 -74 -107 -16 -100 -21 -100
71 l0 82 58 -7 c31 -3 103 -13 160 -23z m-4544 -53 c42 -73 98 -108 211 -135
29 -7 27 -8 -25 -21 -384 -94 -659 -81 -842 40 -57 37 -133 104 -127 110 2 3
38 0 79 -4 167 -20 502 0 680 39 3 0 14 -13 24 -29z m4911 3 c129 -18 483 -25
565 -10 l45 8 -30 -31 c-48 -51 -169 -126 -237 -149 -79 -26 -174 -41 -258
-41 -91 0 -308 29 -415 55 -79 19 -86 23 -60 29 104 25 165 65 200 131 17 29
24 35 45 30 14 -2 79 -12 145 -22z m-4503 -260 c4 -62 4 -63 -22 -63 -38 0
-141 29 -169 47 l-25 16 25 10 c111 43 175 64 180 58 4 -3 9 -34 11 -68z
m4028 40 c55 -20 100 -40 100 -44 0 -13 -111 -49 -169 -56 l-58 -6 8 54 c4 30
8 62 8 72 1 9 3 17 6 17 3 0 50 -17 105 -37z m-4245 -141 c22 -11 66 -25 99
-32 l59 -12 -59 -34 c-156 -89 -314 -128 -497 -122 -133 5 -174 16 -263 69
-65 40 -79 32 139 73 76 14 205 48 285 75 l147 48 25 -22 c14 -13 43 -32 65
-43z m4865 -57 c216 -42 201 -34 136 -74 -91 -55 -129 -64 -272 -69 -116 -3
-142 -1 -230 22 -57 15 -143 48 -204 78 l-104 52 61 13 c73 14 143 46 172 77
l21 22 143 -47 c78 -26 203 -60 277 -74z m-4605 -112 l7 -42 -74 20 c-40 11
-74 22 -76 24 -2 1 25 19 60 38 70 40 69 40 83 -40z m3933 24 c24 -14 30 -22
20 -28 -15 -8 -131 -39 -135 -36 -2 3 14 76 23 106 3 10 9 10 31 -4 14 -10 42
-27 61 -38z m168 -153 c71 -48 191 -108 278 -139 48 -17 49 -18 25 -31 -13 -7
-57 -21 -98 -30 -103 -23 -184 -14 -272 29 -69 35 -228 146 -229 160 0 4 17 7
38 8 27 0 180 39 188 48 1 0 32 -20 70 -45z m-4231 16 c43 -11 93 -20 112 -20
18 0 33 -2 33 -5 0 -9 -70 -68 -123 -104 -134 -90 -247 -117 -378 -87 -41 9
-84 23 -97 29 -21 12 -17 15 60 46 86 34 273 134 283 151 9 14 21 13 110 -10z
m263 -371 c-82 -71 -256 -129 -336 -112 l-40 8 97 81 c53 44 125 114 161 156
l65 76 43 -91 42 -90 -32 -28z m3879 -62 l62 -45 -43 -6 c-84 -13 -255 44
-335 112 l-35 29 38 85 38 85 106 -107 c59 -59 135 -128 169 -153z"/>
<path d="M5045 7103 c-182 -11 -415 -59 -570 -118 -340 -129 -657 -382 -860
-685 -354 -528 -393 -1257 -100 -1840 187 -373 489 -670 857 -845 499 -237
1048 -231 1540 15 139 70 206 113 334 216 336 267 591 702 663 1129 129 757
-204 1480 -864 1880 -228 138 -499 223 -778 245 -67 5 -133 9 -147 8 -14 -1
-47 -3 -75 -5z m103 -187 c21 -42 112 -286 112 -297 0 -6 -15 -9 -32 -7 -29 3
-35 9 -48 46 l-14 42 -62 0 -61 0 -13 -45 c-11 -40 -16 -45 -41 -45 -16 0 -29
4 -29 9 0 16 49 167 82 253 29 77 31 79 62 76 23 -2 34 -11 44 -32z m311 -113
c23 -63 41 -120 41 -128 0 -8 4 -16 8 -19 5 -3 13 25 20 62 6 37 16 91 23 120
10 51 12 53 37 47 15 -4 28 -8 29 -9 2 -2 -45 -232 -62 -303 -4 -19 -8 -20
-40 -10 -33 10 -36 14 -78 140 l-43 129 -23 -116 c-19 -90 -28 -116 -40 -116
-42 1 -43 11 -11 161 16 79 32 149 34 155 2 6 18 9 34 6 29 -4 33 -10 71 -119z
m-567 -35 c21 -83 37 -153 35 -154 -1 -1 -14 -5 -28 -9 -26 -6 -26 -6 -55 112
l-29 118 -10 -123 c-10 -126 -16 -141 -57 -142 -12 0 -38 35 -79 105 -34 58
-63 104 -65 102 -1 -1 11 -49 27 -106 35 -125 35 -129 7 -140 -29 -11 -29 -10
-68 149 -17 69 -33 132 -36 142 -3 12 5 19 33 29 36 11 38 11 63 -19 14 -17
48 -68 75 -114 l50 -83 5 134 c5 146 7 149 70 150 24 1 27 -6 62 -151z m-451
-124 c166 -140 158 -129 122 -148 -29 -14 -31 -14 -53 9 -30 31 -39 31 -100
-2 l-51 -28 7 -47 c3 -28 2 -48 -4 -48 -5 0 -26 -13 -47 -30 l-37 -30 -43 30
c-55 38 -74 38 -110 0 l-29 -30 44 -45 c43 -44 43 -45 25 -65 -10 -11 -22 -20
-26 -20 -5 0 -56 55 -113 122 l-106 122 28 29 c44 47 109 87 140 87 46 0 82
-34 82 -78 0 -33 3 -37 26 -39 15 0 46 -15 70 -32 43 -30 44 -30 44 -8 0 12
-11 85 -25 161 -14 77 -25 143 -25 148 0 7 48 37 61 38 3 0 57 -43 120 -96z
m1541 63 l26 -22 -29 -140 c-42 -204 -35 -186 -65 -173 -23 11 -25 15 -19 58
l6 46 -51 28 -52 28 -31 -30 c-32 -29 -32 -29 -60 -12 l-27 17 127 111 c71 61
133 111 138 112 6 0 22 -10 37 -23z m272 -201 c38 -37 46 -52 46 -81 0 -39
-25 -71 -63 -80 -19 -5 -22 -11 -19 -39 3 -27 -2 -39 -24 -60 -39 -36 -91 -35
-136 2 -62 51 -98 85 -98 93 0 4 48 57 106 118 119 125 110 122 188 47z
m-1004 -26 c298 -36 536 -155 745 -371 415 -430 457 -1097 101 -1570 -83 -110
-170 -190 -293 -273 -226 -150 -438 -216 -693 -216 -556 0 -1028 374 -1166
925 -36 140 -44 354 -19 492 33 182 116 375 225 522 66 89 212 231 292 284
250 166 538 239 808 207z m1235 -221 c55 -77 57 -83 40 -95 -11 -8 -22 -14
-26 -14 -3 0 -25 25 -48 55 l-42 55 -24 -17 c-13 -10 -25 -21 -25 -25 0 -5 16
-30 35 -57 l35 -48 -21 -19 c-21 -18 -21 -18 -42 11 -12 16 -31 40 -42 52
l-20 22 -33 -28 -33 -28 42 -62 c42 -59 42 -61 23 -76 -10 -8 -22 -15 -25 -15
-13 0 -122 171 -113 179 24 22 249 191 254 191 4 0 33 -37 65 -81z m-2365 -90
c0 -4 -8 -17 -18 -30 -18 -22 -20 -22 -59 -6 l-41 16 -35 -52 -34 -53 23 -34
c30 -43 30 -44 -3 -96 -20 -32 -35 -44 -52 -44 -29 0 -143 -29 -154 -39 -4 -4
20 -20 55 -36 35 -15 64 -29 66 -30 1 -1 -3 -14 -9 -29 -15 -31 -12 -32 -161
38 -62 29 -123 56 -135 60 -27 9 -28 14 -7 44 15 22 15 22 52 3 83 -42 85 -40
46 39 -39 81 -39 81 -18 122 19 37 23 33 61 -75 21 -61 30 -76 42 -72 34 13
138 35 168 35 l31 0 -48 73 c-26 39 -68 104 -93 144 l-46 72 24 30 25 29 160
-52 c88 -28 160 -54 160 -57z m2513 -166 c15 -43 27 -88 27 -101 0 -31 -26
-79 -49 -92 -25 -13 -78 -13 -86 0 -9 14 -25 12 -25 -3 0 -8 -10 -23 -22 -34
-23 -21 -88 -57 -92 -51 -1 2 -7 15 -14 30 -11 27 -10 29 36 50 39 19 48 28
50 54 2 16 -1 42 -7 56 l-10 26 -58 -28 -58 -28 -17 31 -16 32 46 17 c26 10
92 40 147 67 55 27 105 50 111 50 6 1 23 -34 37 -76z m-488 -1563 c4 -6 -5
-27 -20 -46 -21 -28 -30 -33 -41 -23 -11 9 -9 17 12 45 28 36 39 41 49 24z
m168 -94 c74 -66 90 -98 76 -150 -12 -44 -73 -96 -112 -96 -38 0 -59 12 -150
88 l-78 65 22 23 21 23 79 -70 c84 -73 116 -84 151 -52 35 31 23 57 -67 140
-83 76 -85 79 -69 101 18 26 12 29 127 -72z m-2216 20 c29 -27 37 -41 37 -69
0 -20 -3 -39 -6 -42 -12 -12 -48 20 -48 42 0 25 -24 53 -46 53 -8 0 -19 -11
-25 -24 -9 -19 -7 -33 10 -71 32 -73 27 -106 -20 -130 -46 -24 -76 -19 -122
24 -37 35 -42 45 -42 85 0 57 17 77 44 52 15 -13 18 -26 14 -56 -5 -33 -2 -40
20 -55 54 -35 86 19 51 87 -56 109 43 187 133 104z m1957 -34 c2 -4 -3 -17
-12 -30 -12 -15 -21 -19 -32 -12 -12 7 -12 12 4 29 20 22 32 26 40 13z m-1765
-152 l23 -20 -40 -127 c-22 -71 -43 -138 -47 -150 -7 -26 -22 -29 -48 -9 -15
12 -16 17 -3 53 l14 40 -44 32 c-50 35 -66 38 -84 16 -16 -20 -33 -19 -60 3
-21 17 -20 18 112 99 73 45 138 82 143 82 6 0 21 -9 34 -19z m1750 9 c35 -12
39 -28 12 -53 -13 -12 -24 -14 -42 -8 -56 22 -99 -26 -80 -88 14 -46 81 -110
116 -110 32 0 65 33 65 65 0 23 24 45 51 45 17 0 5 -78 -18 -109 -29 -39 -87
-64 -129 -57 -70 14 -143 108 -144 186 0 50 33 98 83 120 50 23 46 23 86 9z
m-296 -78 c6 -24 -39 -49 -57 -31 -8 8 -4 16 14 30 31 24 36 25 43 1z m-1276
-53 c4 -7 12 -67 18 -133 l11 -120 49 98 c27 53 52 97 55 97 4 0 14 -6 24 -13
18 -13 15 -21 -47 -150 -36 -76 -68 -137 -71 -137 -2 0 -16 4 -30 10 -19 7
-26 17 -26 37 0 16 -5 74 -12 131 l-12 103 -54 -100 -53 -101 -25 16 c-13 9
-24 17 -24 19 0 3 92 172 127 233 20 36 27 41 43 32 10 -6 22 -16 27 -22z
m1173 -2 c0 -15 -47 -39 -61 -31 -16 11 -10 24 18 39 30 15 43 13 43 -8z m198
-111 c23 -57 42 -118 42 -133 0 -57 -67 -112 -134 -112 -55 0 -89 39 -135 155
l-39 100 21 12 c12 7 25 12 28 13 4 0 24 -43 44 -96 44 -113 65 -139 103 -129
64 16 66 42 16 163 -20 48 -38 93 -41 99 -4 11 24 29 47 32 3 1 24 -46 48
-104z m-1011 -28 c5 -5 41 -311 37 -315 -1 -2 -16 -1 -33 3 -29 6 -31 10 -31
50 0 42 0 42 -42 49 -24 4 -52 9 -64 12 -16 4 -26 -3 -42 -30 -20 -33 -23 -35
-51 -25 l-30 10 92 130 c91 128 92 130 126 125 18 -3 35 -7 38 -9z m693 -12
c26 -23 25 -29 -5 -45 -19 -10 -27 -10 -39 -1 -27 23 -77 16 -103 -13 -55 -64
-8 -196 70 -196 33 0 77 37 77 64 0 31 -7 36 -41 26 -27 -8 -29 -7 -29 20 0
26 4 29 50 39 28 6 53 11 55 11 2 0 10 -31 19 -69 9 -38 18 -75 22 -84 7 -21
-35 -34 -48 -16 -8 11 -11 11 -15 1 -8 -22 -60 -42 -106 -42 -54 0 -92 27
-118 84 -38 84 -10 190 61 228 43 24 121 20 150 -7z m-479 -10 c94 -7 97 -7
95 -31 -1 -21 -6 -24 -43 -24 -28 0 -43 -4 -43 -12 0 -39 -23 -234 -29 -240
-3 -3 -17 -4 -31 -1 l-26 4 13 112 c17 159 19 147 -27 147 -38 0 -40 2 -40 31
0 24 4 29 18 25 9 -2 60 -7 113 -11z"/>
<path d="M5081 6816 c-11 -31 -21 -59 -21 -61 0 -3 20 -5 45 -5 25 0 45 1 45
3 0 2 -11 30 -24 62 l-23 58 -22 -57z"/>
<path d="M4322 6659 c3 -9 9 -41 13 -72 4 -32 10 -57 14 -57 3 0 23 11 43 24
l38 23 -57 48 c-31 27 -54 42 -51 34z"/>
<path d="M4035 6460 l-29 -30 29 -30 29 -30 28 27 c33 31 36 68 9 83 -29 15
-34 13 -66 -20z"/>
<path d="M5889 6615 l-47 -44 35 -21 c20 -11 36 -20 38 -18 6 9 31 128 26 128
-3 0 -27 -20 -52 -45z"/>
<path d="M6151 6466 l-23 -25 28 -25 c32 -29 61 -30 78 -4 8 14 5 23 -19 48
-16 16 -32 30 -35 30 -4 0 -17 -11 -29 -24z"/>
<path d="M6064 6369 l-29 -30 33 -30 c34 -31 60 -37 80 -17 20 20 14 42 -21
76 l-33 32 -30 -31z"/>
<path d="M4919 6405 c-400 -76 -755 -385 -884 -769 -43 -129 -57 -213 -58
-356 -1 -151 12 -244 54 -371 59 -183 160 -342 306 -480 352 -335 853 -411
1283 -194 511 258 759 812 604 1353 -55 192 -150 350 -304 502 -156 155 -313
244 -527 301 -103 28 -362 35 -474 14z m411 -92 c400 -81 721 -384 828 -782
23 -85 26 -115 26 -261 0 -147 -3 -176 -27 -265 -32 -117 -107 -276 -171 -362
-60 -79 -198 -209 -278 -262 -90 -60 -209 -116 -313 -147 -83 -26 -103 -28
-270 -28 -213 -1 -287 14 -450 94 -281 136 -490 383 -581 685 -25 82 -28 105
-28 265 -1 187 9 249 61 390 95 253 287 461 548 592 193 98 430 127 655 81z"/>
<path d="M4955 6256 c-103 -18 -164 -38 -246 -79 -332 -168 -532 -446 -580
-806 -28 -207 34 -461 157 -648 51 -77 194 -225 269 -278 236 -168 547 -225
810 -150 363 103 637 377 726 723 61 240 39 460 -70 687 -58 121 -117 200
-219 296 -129 121 -262 197 -418 239 -102 28 -314 35 -429 16z m598 -157 c84
-43 153 -93 225 -163 41 -39 78 -79 83 -88 9 -16 5 -17 -38 -11 -38 5 -59 16
-98 51 -57 51 -171 128 -230 155 -29 13 -46 31 -62 63 -13 24 -23 46 -23 49 0
6 88 -29 143 -56z m-736 5 c-17 -36 -33 -52 -72 -71 -72 -37 -163 -99 -215
-148 -38 -36 -54 -44 -99 -49 l-53 -7 32 41 c34 43 128 122 215 180 44 30 188
100 207 100 4 0 -2 -21 -15 -46z m68 -117 c44 -19 110 -49 147 -67 l67 -34 3
-138 3 -139 -52 -29 c-28 -16 -99 -65 -158 -109 l-106 -80 -138 37 -139 36 -6
45 c-3 24 -6 99 -6 166 l0 123 56 51 c70 64 170 133 249 171 1 0 37 -15 80
-33z m635 -7 c80 -47 150 -98 203 -148 37 -36 37 -37 37 -117 0 -124 -12 -246
-24 -250 -6 -2 -72 -20 -147 -40 l-136 -38 -59 48 c-32 27 -103 78 -157 113
-84 55 -98 68 -93 86 3 11 6 71 6 133 l0 111 36 22 c36 23 242 118 257 119 5
1 39 -17 77 -39z m-768 -624 c22 -5 30 -15 38 -49 19 -73 92 -291 102 -304 12
-14 14 -10 -81 -143 -41 -58 -76 -106 -77 -108 -1 -2 -68 12 -149 30 l-148 33
-32 64 c-36 70 -67 163 -85 254 l-11 57 62 78 c35 42 78 95 96 118 l34 40 112
-31 c62 -18 124 -35 139 -39z m1093 -42 c80 -104 90 -120 87 -153 -5 -61 -40
-176 -80 -264 l-39 -83 -147 -33 c-81 -19 -148 -32 -150 -30 -1 2 -38 56 -82
120 -71 102 -79 118 -68 135 14 21 94 296 94 323 0 12 35 26 143 57 78 23 144
42 147 43 3 0 46 -52 95 -115z m-1615 -104 c34 -27 39 -38 50 -97 14 -83 42
-168 80 -242 26 -53 27 -59 16 -105 -12 -48 -12 -48 -28 -24 -48 73 -114 225
-138 317 -13 48 -29 181 -22 181 2 0 21 -14 42 -30z m1814 -108 c-25 -127 -66
-232 -133 -337 l-29 -46 -10 46 c-9 43 -7 53 25 123 20 42 48 125 62 184 24
96 31 111 61 137 l35 29 3 -24 c2 -14 -4 -64 -14 -112z m-637 -268 l81 -117
-35 -56 c-19 -31 -61 -90 -92 -132 -52 -71 -59 -77 -100 -83 -57 -8 -216 -8
-275 0 -43 6 -50 11 -95 73 -26 36 -67 96 -90 133 l-42 67 44 58 c24 32 62 85
85 118 l41 60 198 -1 198 -2 82 -118z m-76 -449 c21 -10 39 -21 39 -25 0 -4
-35 -13 -77 -21 -93 -17 -281 -15 -373 4 l-65 13 47 25 c45 23 55 24 219 23
140 -2 178 -5 210 -19z"/>
<path d="M3858 6150 c20 -32 39 -59 42 -59 3 -1 15 17 27 38 l22 39 -58 21
c-32 11 -61 21 -64 21 -4 0 10 -27 31 -60z"/>
<path d="M6533 5978 c-24 -10 -43 -23 -43 -28 0 -27 37 -81 59 -87 36 -9 54
20 47 77 -4 24 -10 47 -14 51 -4 3 -26 -2 -49 -13z"/>
<path d="M4182 4098 l-53 -30 36 -25 c20 -14 38 -23 40 -21 9 9 44 108 37 107
-4 0 -31 -14 -60 -31z"/>
<path d="M4742 3818 c-18 -27 -32 -51 -30 -53 2 -2 20 -6 41 -10 34 -7 37 -6
36 16 0 13 -3 41 -7 61 l-7 37 -33 -51z"/>
<path d="M4955 7424 c-166 -18 -388 -63 -505 -102 l-52 -18 -2 -57 c-1 -45 2
-56 13 -52 78 30 302 81 440 101 126 17 421 20 536 4 150 -21 353 -69 450
-106 12 -5 15 5 15 54 l0 59 -112 33 c-181 53 -357 79 -563 84 -99 2 -198 2
-220 0z"/>
</g>
</svg>
